#!OML:ASF E:\Steps\Project 1\Capture day 1\Session 2\Subject.ASF
:FULLY-SPECIFIED
:DEGREES
472
root 10.7295 16.3312 12.7617 29.4853 -176.204 362.133
lowerback -11.6066 -1.63693 -7.9639
upperback 1.58937 -1.02257 -1.6472
thorax 8.363 -0.879073 2.52639
lowerneck 1.03786 0.392516 -4.21897
upperneck 8.92395 -0.360241 6.83348
head 2.7182 -0.306851 2.97783
rclavicle -1.59028e-014 -3.33958e-014
rhumerus -23.5542 -13.2467 -88.8931
rradius 23.7809
rwrist 7.4863
rhand -14.4325 -56.0689
rfingers 7.12502
rthumb 11.7121 -85.7215
lclavicle -1.59028e-014 -3.33958e-014
lhumerus -21.7154 -7.10265 86.1924
lradius 23.3835
lwrist 1.00306
lhand -22.9032 -12.578
lfingers 7.12502
lthumb 3.53661 17.3724
rfemur -46.9366 14.8376 10.4847
rtibia 23.6074
rfoot -15.5929 -10.8733
rtoes -33.8164
lfemur -42.8552 -9.34575 -15.6098
ltibia 25.8483
lfoot -12.4527 9.07241
ltoes -33.4485
473
root 10.7254 16.33 12.7622 29.4247 -176.237 362.139
lowerback -11.5536 -1.58375 -8.0162
upperback 1.53159 -0.953361 -1.67529
thorax 8.26266 -0.843832 2.54092
lowerneck 1.26142 0.392573 -4.15404
upperneck 8.89351 -0.375085 6.83685
head 2.66706 -0.319515 2.96389
rclavicle -2.38542e-015 -4.77083e-015
rhumerus -23.8788 -13.3718 -88.833
rradius 23.9721
rwrist 7.48028
rhand -14.2768 -56.1779
rfingers 7.12502
rthumb 11.8622 -85.8219
lclavicle -2.38542e-015 -4.77083e-015
lhumerus -21.747 -7.24116 86.2332
lradius 23.1923
lwrist 0.868801
lhand -22.8796 -12.7044
lfingers 7.12502
lthumb 3.55936 17.2456
rfemur -46.8085 14.9445 10.4502
rtibia 23.4867
rfoot -15.7184 -10.9454
rtoes -33.2645
lfemur -42.7556 -9.33129 -15.6302
ltibia 25.7954
lfoot -12.5528 8.97873
ltoes -32.1921
474
root 10.7207 16.3291 12.7632 29.4005 -176.203 362.125
lowerback -11.5152 -1.5868 -8.0351
upperback 1.61512 -0.952271 -1.68063
thorax 8.33209 -0.84792 2.54496
lowerneck 1.0657 0.364737 -4.10864
upperneck 8.89293 -0.399705 6.8403
head 2.70421 -0.32348 2.95795
rclavicle 6.36111e-015 8.42847e-014
rhumerus -23.6808 -13.4085 -88.8558
rradius 23.8908
rwrist 7.47052
rhand -14.3622 -56.0201
rfingers 7.12502
rthumb 11.7798 -85.6688
lclavicle 6.36111e-015 8.42847e-014
lhumerus -21.5129 -7.27247 86.2118
lradius 23.148
lwrist 0.701685
lhand -23.0689 -12.6037
lfingers 7.12502
lthumb 3.3766 17.3493
rfemur -46.6416 14.9258 10.4346
rtibia 23.2374
rfoot -15.6241 -10.9543
rtoes -33.3509
lfemur -42.7314 -9.37296 -15.6666
ltibia 25.8135
lfoot -12.5641 9.0007
ltoes -32.4207
475
root 10.7162 16.3293 12.7653 29.4284 -176.129 362.128
lowerback -11.4529 -1.60773 -8.02882
upperback 1.57867 -0.990764 -1.64796
thorax 8.26104 -0.863313 2.5712
lowerneck 0.974497 0.348003 -4.13341
upperneck 8.90762 -0.417467 6.84926
head 2.72751 -0.329915 2.96651
rclavicle 1.11319e-014 7.31528e-014
rhumerus -23.6617 -13.4701 -88.7685
rradius 23.738
rwrist 7.48358
rhand -14.4288 -55.7575
rfingers 7.12502
rthumb 11.7156 -85.4099
lclavicle 1.11319e-014 7.31528e-014
lhumerus -21.5094 -7.2051 86.2424
lradius 23.1715
lwrist 0.387019
lhand -23.3512 -12.4504
lfingers 7.12502
lthumb 3.10391 17.5067
rfemur -46.5841 14.8274 10.4525
rtibia 23.1016
rfoot -15.5042 -10.9127
rtoes -33.5394
lfemur -42.7741 -9.38086 -15.6744
ltibia 25.8262
lfoot -12.5381 8.94618
ltoes -32.514
476
root 10.7127 16.3299 12.7673 29.4076 -176.079 362.128
lowerback -11.2691 -1.62058 -8.03575
upperback 1.49471 -1.03253 -1.6189
thorax 8.06891 -0.87616 2.60377
lowerneck 0.887225 0.335716 -4.19494
upperneck 8.93455 -0.430185 6.8622
head 2.75431 -0.335223 2.98362
rclavicle 7.95139e-015 3.33958e-014
rhumerus -23.7514 -13.5327 -88.6601
rradius 23.5935
rwrist 7.56292
rhand -14.1949 -55.752
rfingers 7.12502
rthumb 11.9411 -85.3914
lclavicle 7.95139e-015 3.33958e-014
lhumerus -21.5319 -7.0516 86.2581
lradius 23.1195
lwrist 0.319992
lhand -23.5332 -12.8843
lfingers 7.12502
lthumb 2.9282 17.0753
rfemur -46.4707 14.7981 10.4523
rtibia 22.9415
rfoot -15.4216 -10.9287
rtoes -33.6656
lfemur -42.7535 -9.33558 -15.7296
ltibia 25.7827
lfoot -12.3851 8.97182
ltoes -33.6142
477
root 10.709 16.3298 12.7688 29.3584 -176 362.092
lowerback -11.1215 -1.65449 -8.02649
upperback 1.48158 -1.09519 -1.63003
thorax 7.97597 -0.902957 2.57827
lowerneck 0.810598 0.330822 -4.22168
upperneck 8.95762 -0.4331 6.86181
head 2.77676 -0.33529 2.98958
rclavicle 1.43125e-014 1.11319e-014
rhumerus -23.6969 -13.6776 -88.6684
rradius 23.4829
rwrist 7.55094
rhand -13.965 -56.3851
rfingers 7.12502
rthumb 12.1629 -86.0115
lclavicle 1.43125e-014 1.11319e-014
lhumerus -21.5349 -7.12751 86.2504
lradius 23.1612
lwrist 0.462798
lhand -24.0899 -12.8769
lfingers 7.12502
lthumb 2.39057 17.0894
rfemur -46.3007 14.808 10.3905
rtibia 22.7002
rfoot -15.3628 -11.1078
rtoes -34.0825
lfemur -42.7208 -9.37699 -15.8118
ltibia 25.7507
lfoot -12.2081 9.09419
ltoes -35.174
